<svg width="67" height="70" viewBox="0 0 67 70" fill="none" xmlns="http://www.w3.org/2000/svg">
<path d="M16.2573 42.0607L17.984 29.0568L2.98358 18.6428L16.689 23.2832L19.9265 18.319L31.7434 10.9807L57.8052 25.3336L59.1543 47.2407L47.5532 63.3743L38.3802 64.7772L43.1286 56.0898V47.7264L39.6752 41.1973L36.168 38.8772L30.7722 44.4348V50.3164L26.5634 54.2553L21.2215 54.9028L18.8473 56.2518L14.9623 55.0107L13.3436 49.1832L16.2573 45.0823V42.0607Z" fill="white"/>
<path d="M40.2147 18.5348C37.3549 17.9413 34.2253 18.1032 34.2253 18.1032C34.2253 18.1032 33.2002 22.8515 26.8331 24.0926C26.887 24.0926 35.2506 26.9523 40.2147 18.5348Z" fill="#94A6C3"/>
<path d="M42.8046 61.5937C46.2579 58.8958 48.8479 55.1726 50.035 50.9639C50.089 50.802 50.5746 50.5322 50.8983 50.3164C51.4379 49.9926 51.9775 49.7229 52.0854 49.2912C52.3013 48.0501 52.4092 46.7551 52.4092 45.4601C52.4092 44.9745 51.9236 44.4889 51.4379 44.0033C51.0603 43.6796 50.6825 43.3018 50.6825 43.032C50.1429 38.1218 47.8767 33.5354 44.2615 30.19L43.8838 30.5676C47.3911 33.8591 49.6574 38.3376 50.1429 43.0859C50.1969 43.5176 50.6286 43.9493 51.0603 44.3809C51.4379 44.7047 51.8696 45.1904 51.8696 45.4062C51.8696 46.6472 51.7617 47.8883 51.5458 49.1293C51.4919 49.3451 51.0063 49.5609 50.6286 49.7768C50.089 50.0466 49.6033 50.3164 49.4954 50.748C48.2004 55.3346 45.2328 59.3275 41.2938 61.9175C41.9953 60.4066 44.2075 55.4964 45.3946 53.0143L45.1788 45.0284L38.3261 38.3916L34.4411 38.9312L30.1783 45.8379C30.1783 45.8379 32.1749 48.3739 29.369 51.3416C26.6171 54.2554 24.4588 54.9029 24.4588 54.9029L22.4624 53.8237C23.0558 53.0683 24.2429 51.9351 25.1603 51.1797C26.725 49.8847 28.2899 49.7768 28.2899 48.3739C28.3438 45.4601 25.2142 46.2695 25.2142 46.2695L24.0811 47.3487L23.5954 51.3416L21.2213 54.3093L20.9515 54.2554L17.0665 53.392C17.0665 53.392 19.4407 52.1509 19.8183 50.748C20.1961 49.3991 19.0629 44.9205 19.009 44.6508C19.0629 44.7047 20.1421 45.622 20.6278 47.1329C21.4911 44.7587 22.6242 42.4925 22.9479 42.2766C23.2717 42.0608 27.6424 39.7405 27.6424 39.7405L26.1854 43.5716L27.2646 42.978L29.8546 36.6109C29.8546 36.6109 32.3907 35.37 34.2792 35.37C37.6786 35.3159 42.6967 31.1612 40.4304 23.715C41.0779 23.9847 52.3013 29.5964 54.2438 40.6039C55.7007 49.0754 50.8983 57.0072 42.8046 61.5937Z" fill="#94A6C3"/>
<path d="M29.9627 19.722C31.2037 18.265 30.7182 16.1067 30.7182 16.1067L27.1029 21.4486C27.049 21.4486 28.3979 21.5025 29.9627 19.722Z" fill="#1B314F"/>
<path d="M17.8221 48.9135L18.2538 46.7551C18.2538 46.7551 16.4732 49.8847 16.3113 50.3164C16.1494 50.8021 16.4192 51.6654 17.1207 51.6114C17.8221 51.5575 18.6854 50.5322 18.6854 49.7768C18.6854 48.8055 17.8221 48.9135 17.8221 48.9135Z" fill="#1B314F"/>
<path d="M49.8733 14.596C49.8733 14.596 52.5712 14.7039 55.3771 15.0277C49.064 10.0635 43.0746 8.60659 38.2183 8.60659C31.5275 8.60659 26.995 11.3585 26.7253 11.5203L28.8296 8.17492C28.8296 8.17492 20.4121 7.36554 17.4443 16.2686C16.6889 14.3802 15.9875 11.6283 15.9875 11.6283C15.9875 11.6283 11.6168 15.4593 13.6672 21.8264C8.64916 19.9918 1.4727 17.4557 1.2029 17.4018C0.825195 17.3478 0.717279 17.5097 0.717279 17.5097C0.717279 17.5097 0.609362 17.6715 0.933112 17.9414C1.52665 18.427 12.8579 26.7906 15.34 28.4093C14.8004 30.3518 14.8004 31.269 15.34 32.1864C16.0954 33.4274 16.1493 34.0749 16.0414 34.9922C15.9335 35.9095 14.9623 43.8414 14.7464 44.8127C14.5306 45.7839 12.2644 49.2372 12.3722 50.2624C12.4803 51.2877 13.8832 55.6582 15.1242 56.1439C16.0415 56.4677 18.3078 57.1692 19.8186 57.1692C20.3582 57.1692 20.8437 57.0611 21.0596 56.8454C21.9769 56.036 22.2467 55.8742 22.8942 55.8742C22.9481 55.8742 23.0021 55.8742 23.0561 55.8742C23.3258 55.8742 23.6496 55.9281 24.0273 55.9281C24.8907 55.9281 26.0237 55.7663 26.8332 55.0108C28.0203 53.8236 30.0706 52.2049 30.7182 51.4495C31.5275 50.4243 31.9592 49.0214 31.7433 47.6185C31.5815 46.3235 32.2829 45.1903 33.0922 44.0572C34.1175 42.7082 36.006 40.2802 36.006 40.2802C39.7292 43.086 42.0493 47.3486 42.0493 52.097C42.0493 60.5146 34.711 67.3133 25.6461 67.3133C24.2432 67.3133 22.8942 67.1514 21.5453 66.8277C25.7 68.2846 29.2073 68.7702 32.0671 68.7702C38.1643 68.7702 41.4018 66.5579 41.4018 66.5579C41.4018 66.5579 40.2687 68.0147 38.4342 69.6875C38.4881 69.6875 38.4881 69.6875 38.4881 69.6875C48.5783 68.2846 53.4885 59.975 53.4885 59.975C53.4885 59.975 53.1108 62.6729 52.6251 64.5075C66.0608 54.4172 63.7946 41.791 63.7406 41.3593C63.8485 41.5211 65.1975 43.1399 65.8989 44.0032C68.0572 21.7724 49.8733 14.596 49.8733 14.596ZM29.2073 50.1006C28.9915 50.3703 28.0742 51.1797 27.4267 51.7733C26.7792 52.3668 26.0776 52.9603 25.5381 53.4999C25.3223 53.7157 24.8907 53.8236 24.2432 53.8236C24.0272 53.8236 23.8115 53.8236 23.6496 53.8236C23.5417 53.8236 23.4337 53.8236 23.3258 53.8236C23.2179 53.8236 23.164 53.8236 23.11 53.8236C22.9482 53.8236 22.7862 53.8236 22.6244 53.8236C23.4337 52.7445 25.8079 50.2624 26.6172 49.7228C27.5886 49.0753 28.0742 48.4278 27.4807 47.2947C26.8871 46.1615 25.3223 46.4314 25.3223 46.4314C25.3223 46.4314 26.2396 46.0536 27.049 46.0536C26.0237 45.7839 24.7287 46.0536 24.1353 46.6472C23.4878 47.2407 23.5957 49.3452 23.3258 50.6941C23.0561 52.097 22.1387 52.7985 20.7358 54.0935C19.9804 54.7949 19.4408 55.0108 19.0092 55.0108C18.0919 54.8489 17.0126 54.579 16.2572 54.3093C15.7176 53.6079 14.9083 51.2877 14.6925 50.3164C14.8543 49.7768 15.5019 48.6436 15.8256 47.9961C16.4731 46.7552 16.8508 46.0536 16.9587 45.4061C17.1746 44.4889 17.8761 38.8232 18.1458 36.449C18.8473 37.3664 19.8186 38.8772 19.6028 39.8485C21.1675 37.6361 20.0344 35.4778 19.4948 34.6145C19.0092 33.7511 18.3617 32.0245 18.9012 30.1899C19.4408 28.3553 21.3833 23.2832 21.3833 23.2832C21.3833 23.2832 22.0308 24.4164 22.9482 24.2006C23.8654 23.9847 31.2578 12.8693 31.2578 12.8693C31.2578 12.8693 33.2542 17.2399 31.1498 20.4235C28.9915 23.607 26.8871 24.2006 26.8871 24.2006C26.8871 24.2006 29.8547 24.7402 32.6067 22.7436C33.7397 25.3877 34.8189 28.1395 34.8729 28.5172C34.711 28.8949 32.5526 34.0749 32.3369 34.3986C32.2289 34.5065 31.4735 34.7224 30.9339 34.8303C30.0167 35.1002 29.4771 35.262 29.2612 35.4239C28.8836 35.7477 27.1568 40.496 26.3475 42.8161C25.3762 43.086 24.405 43.6256 23.7036 44.7047C24.0812 44.4349 25.2683 44.2731 26.1317 44.1651C26.8871 44.1111 29.2073 45.3522 29.8008 47.6724C29.8008 47.7264 29.8008 47.7264 29.8008 47.7803C29.9087 48.6436 29.639 49.4531 29.2073 50.1006ZM24.1353 50.7481C24.6208 50.0466 24.5668 48.8595 24.6208 48.4818C24.6748 48.104 24.7828 47.4026 25.2144 47.2947C25.6461 47.1868 26.6712 47.3486 26.6712 48.104C26.6712 48.8056 25.9158 48.9674 25.3762 49.4531C24.9986 49.8307 24.2432 50.6402 24.1353 50.7481ZM45.6646 40.442C46.2042 37.6902 46.2581 35.316 46.0962 33.3735C48.2006 36.1793 49.4956 39.5786 49.8733 43.086C49.9272 43.5177 50.3589 43.9493 50.7906 44.381C51.1683 44.7047 51.6 45.1364 51.6 45.4061C51.6 46.6472 51.4921 47.8882 51.2762 49.1293C51.2222 49.2911 50.7367 49.561 50.3589 49.7768C49.8193 50.0466 49.3337 50.3164 49.2258 50.7481C48.0387 54.9028 45.5026 58.572 42.1033 61.1621C47.1214 55.9281 49.5496 47.2947 45.6646 40.442ZM42.2651 61.6477C45.7725 58.9497 48.4704 55.1727 49.6575 50.9099C49.7114 50.7481 50.1971 50.4782 50.5208 50.2624C51.0604 49.9927 51.6 49.6689 51.7079 49.2372C51.9237 47.9961 52.0317 46.7011 52.0317 45.4061C52.0317 44.9206 51.5461 44.4349 51.0604 43.9493C50.7906 43.6256 50.3589 43.2478 50.3589 42.9781C49.9272 39.039 48.3625 35.316 45.9343 32.2403C44.8551 25.7653 40.5385 23.7689 40.4306 23.7149C40.5385 23.8768 43.3443 27.9236 41.4018 32.672C39.4054 37.4743 34.2794 36.7189 33.8478 36.7728C33.4161 36.7728 31.7433 38.9311 29.639 42.924C29.3692 42.8161 28.236 42.5464 26.9411 42.7622C27.9122 40.0643 29.3692 36.2332 29.639 35.9095C29.7469 35.8015 30.5562 35.5857 31.0958 35.4239C32.121 35.154 32.6067 34.9922 32.7686 34.7764C32.8765 34.6145 33.4161 33.3735 33.9557 32.0785C34.4412 32.0785 35.6822 31.9706 35.7901 31.9165C35.8981 31.8086 36.9233 29.1647 36.9233 28.841C36.9233 28.5711 34.819 23.3372 34.0096 21.3407C34.3873 20.909 34.765 20.3695 35.1428 19.776C46.2042 20.9631 54.8375 30.3518 54.8375 41.737C54.8375 50.4782 49.7114 58.0864 42.2651 61.6477Z" fill="#1B314F"/>
<path d="M27.9123 32.5101C28.9375 31.3231 28.3979 29.1107 26.5094 28.7331C26.995 27.5999 27.6965 25.3336 27.6965 25.3336C27.6965 25.3336 22.1928 33.9669 21.7071 34.1289C21.2215 34.2907 20.7358 32.4022 20.7358 32.4022C19.7107 36.3411 22.4625 36.8807 22.7862 35.6397C24.2971 35.262 26.8871 33.6432 27.9123 32.5101Z" fill="#1B314F"/>
<path d="M23.218 34.6147L26.0239 29.8123C26.0239 29.8123 27.6426 30.6218 26.8332 31.9168C25.808 33.4276 23.218 34.6147 23.218 34.6147Z" fill="#FFD923"/>
<path d="M57.913 56.8455C57.1035 57.9247 56.1863 59.0578 55.1071 60.137C62.0677 46.7553 55.4309 34.5067 55.161 34.0212C55.6467 34.5067 56.1323 35.0463 56.5639 35.532C61.9059 41.4674 62.5534 50.3705 57.913 56.8455Z" fill="#D82122"/>
<path d="M64.3879 39.6328C61.9597 33.1039 58.5064 27.5461 50.8984 22.528C43.56 17.6718 35.6821 18.0494 35.2504 18.1035C35.1964 18.1035 35.1425 18.1035 35.1425 18.1035C35.4122 17.9955 35.6821 17.9416 35.9518 17.8876C37.6246 17.348 39.7829 16.9164 41.9413 16.6465C47.6609 15.8372 53.4343 17.7797 57.3734 21.9344C57.4272 21.9885 57.4272 21.9885 57.4813 22.0423C61.9597 26.7907 64.28 32.7261 64.3879 39.6328Z" fill="#D82122"/>
<path d="M49.1717 12.9236C41.1318 11.4127 35.9518 12.1682 32.2287 13.5711C32.1208 13.1394 31.7431 12.2761 31.4193 11.5746C30.2862 12.9236 29.0992 14.5423 28.3437 15.5676C26.2933 16.9705 25.43 18.3194 25.43 18.3194C26.6171 14.2726 30.0704 11.2509 34.2792 10.4954C35.4662 10.2796 36.7612 10.1717 38.1642 10.1717C41.8872 10.2257 45.6104 11.1429 49.1717 12.9236Z" fill="#D82122"/>
<path d="M19.4405 23.2836C13.1275 23.0677 15.2318 15.7294 15.3397 15.2977C15.3397 15.3517 15.7714 21.0713 19.4405 23.2836Z" fill="#D82122"/>
<path d="M25.6458 10.0637C20.7896 12.9775 21.7608 19.938 21.7608 19.938C17.1204 12.8696 25.268 10.2256 25.6458 10.0637Z" fill="#D82122"/>
<path d="M17.6601 25.2258C17.9839 25.4955 18.3076 25.9812 17.93 26.6826C17.7142 27.0604 17.3904 27.0064 16.9047 26.7905C16.2572 26.4668 12.3722 24.2005 8.86499 21.8804C12.8579 23.2833 16.9047 24.7941 17.5522 25.1179C17.5522 25.1179 17.6063 25.1718 17.6601 25.2258Z" fill="white"/>
<path d="M10.7297 18.8203C10.7297 18.8203 12.7869 6.42538 25.7255 2.69068C38.6642 -1.04403 46.0268 4.04383 46.0268 4.04383L41.8583 7.99505L30.5978 7.83267L28.2159 8.69869L29.5692 6.69602L20.7991 11.2967L17.984 14.7067L18.0382 11.2967L15.2772 14.1113L10.7297 18.8203Z" fill="#D82122"/>
<path d="M45.1064 4.58516C45.1064 4.58516 37.5814 3.98977 33.5753 5.55943C35.1994 4.26041 36.3904 3.66502 36.3904 3.66502C36.3904 3.66502 25.9961 3.44851 19.8246 11.2968C21.4487 10.8638 23.9931 8.75288 23.9931 8.75288L29.6234 6.69609L28.9736 8.64463L36.228 7.50798L40.7213 7.94099L45.1064 4.58516Z" fill="#AF1C24"/>
<path d="M46.568 9.34797L38.3392 7.50769L29.2983 8.1572L29.5691 6.6958L22.0441 10.3222L18.9583 12.7579L19.0666 10.7011C19.0666 10.7011 11.1085 16.8174 12.6784 23.0961C14.1943 29.3746 21.1778 26.0188 21.1778 26.0188L28.757 17.521L52.0357 13.0286L45.3769 10.1057L46.568 9.34797Z" fill="white"/>
<path d="M56.8539 8.2654L55.717 4.42245L52.7395 1.82439C52.7395 1.82439 48.4627 1.49964 47.4882 3.01518L46.4055 5.01784L48.8417 7.77827L53.7139 9.34794L53.3891 7.77827L56.8539 8.2654Z" fill="white"/>
<path d="M35.1991 12.9745C35.1991 12.9745 35.578 12.0003 39.53 10.8636C27.4576 10.1059 20.9612 22.9879 20.1491 23.6915C19.3371 24.341 16.7926 25.9648 18.5251 23.2585C16.9009 24.1246 14.4107 23.5833 16.8468 21.6347C11.758 20.2275 18.5251 11.6755 18.5251 11.6755L14.7896 13.7864L10.4587 20.0109L9.37598 26.1273L10.8377 29.9702L14.3565 31.3774L19.5537 29.9702L22.8018 26.885L24.047 23.4209L27.1328 21.6889L33.8457 17.7918L39.2594 16.1138L47.8129 15.5726L47.3798 14.2194C47.3798 14.2194 48.7332 13.5158 49.8701 12.758C41.3166 10.9178 35.1991 12.9745 35.1991 12.9745Z" fill="#94A6C3"/>
<path d="M56.6914 7.56188C55.7711 6.20873 51.9814 5.99223 50.3574 5.12621C48.7333 4.31432 49.0581 3.28592 49.4912 2.04102L47.434 3.12355L46.2971 4.53082L48.4626 7.39952L53.9303 9.45631L53.1183 7.34538C53.2266 7.39952 57.6117 8.91505 56.6914 7.56188Z" fill="#94A6C3"/>
<path d="M51.765 4.85557C51.765 4.85557 50.6281 4.31431 50.4657 3.66479C50.4657 4.58494 49.8703 4.63907 51.765 4.85557Z" fill="#94A6C3"/>
<path d="M22.6393 17.7916C22.9101 17.1963 24.9673 14.3817 26.2123 13.8945C23.1806 14.2734 22.1521 15.3019 22.1521 15.3019C22.1521 15.3019 21.7732 17.5752 20.0948 19.4154C20.0948 19.4154 22.3686 18.3871 22.6393 17.7916Z" fill="#94A6C3"/>
<path d="M35.1991 15.302L39.8548 14.1112L37.0939 13.7865C37.0939 13.7865 35.6864 14.3277 35.1991 15.302Z" fill="#1B314F"/>
<path d="M16.7929 25.9648C16.089 25.8567 15.3311 24.8823 15.3311 24.8823C15.3311 24.8823 15.1687 26.6144 16.7929 25.9648Z" fill="#1B314F"/>
<path d="M17.4425 28.8334C17.4425 28.8334 18.4711 28.3464 19.0124 26.939C18.2003 27.5886 15.3311 28.0216 15.3311 28.0216C15.9807 28.5628 17.4425 28.8334 17.4425 28.8334Z" fill="#1B314F"/>
<path d="M59.1817 10.3223L58.3696 8.53616C57.9365 7.61602 57.5576 6.91238 57.0703 6.31699L57.9365 6.37112L57.3952 5.12621C57.341 5.01796 56.2041 2.52816 52.6312 1.33738C49.2747 0.25486 47.2716 1.93277 46.4596 3.39418C43.9152 1.77039 36.8233 -1.47718 25.617 2.04102C14.5731 5.50509 10.7836 13.4075 9.48429 19.2531C9.21361 18.9826 8.88879 18.6037 8.72639 18.2788C8.45569 19.2531 8.99707 20.5522 9.15947 20.9852C8.99707 22.1219 8.88879 23.0961 8.88879 23.908C8.50984 24.0163 7.31883 24.5033 6.8316 25.6401C7.37296 25.4235 8.72639 25.5859 8.83465 25.6401C8.78052 25.6941 8.02261 26.2354 7.91434 26.8849C8.34742 26.7226 8.88879 26.9932 8.88879 26.9932C8.94292 27.3721 8.99707 27.7509 9.10534 28.0757C9.86325 30.5655 11.8122 31.9186 14.6272 31.9186C14.7355 31.9186 14.898 31.9186 15.0062 31.9186C22.8019 31.5939 24.5884 25.3694 24.9674 23.475C25.7253 23.2044 27.241 22.6089 29.4065 21.4723C30.4893 21.2017 31.572 20.9311 32.4923 20.6062C32.6548 20.1733 32.8172 19.7945 32.9255 19.3614C33.0878 19.2531 33.1961 19.199 33.3585 19.0907C38.5015 15.6808 48.9498 16.4927 49.0581 16.4927L51.6567 16.7093L48.8415 14.3817C50.0325 14.3817 51.4401 14.4359 52.5229 14.5983L55.6628 15.0855L53.1183 13.1369C51.4401 11.892 49.3829 10.9177 47.7048 10.2141L50.0867 9.94344L46.9467 8.75267C45.5393 8.21141 44.1317 7.7784 42.7783 7.50777C43.9151 6.91238 45.2144 6.37112 46.0806 6.04636C46.1347 6.20874 46.243 6.37112 46.3513 6.5335C47.9212 9.07742 53.4432 9.99757 54.0928 10.1058L55.9876 10.4306L54.9048 8.91505C56.2041 9.2398 57.3952 9.67281 57.3952 9.67281L59.1817 10.3223ZM43.1572 9.2398L40.7211 9.78106L43.9151 10.6471C43.9692 10.6471 46.6761 11.4049 49.3288 12.758C47.8671 12.758 46.5679 12.8121 46.5137 12.8121L44.3482 12.9204L46.6762 14.8148C43.3196 14.7607 37.3105 15.0855 33.2502 17.3046C33.3585 14.057 31.6262 11.6755 31.6262 11.6755L20.6906 25.6941C20.6906 25.6941 21.9357 25.2612 22.9102 24.6658C22.0982 26.8307 20.0951 30.0242 15.0062 30.2408C14.7355 30.2408 14.4648 30.2408 14.2484 30.2408C10.5129 29.9161 9.26775 24.0704 12.8949 24.6658C12.2453 23.8538 11.9746 23.0419 11.9746 23.0419C11.9746 23.0419 13.2198 22.6631 13.8152 22.0677C11.4873 22.1759 11.0001 21.5264 13.2198 17.5211C14.4107 15.6808 15.9807 13.9488 17.8213 12.5415C17.6589 13.3534 17.6589 13.8405 17.6589 13.8405L17.4423 16.9257L19.1748 14.3277C19.2289 14.2736 21.8816 10.3223 27.9449 8.21141L26.6456 9.88931L29.1358 9.13155C29.1358 9.18568 35.524 7.34539 43.1572 9.2398ZM40.288 7.02063C36.2819 6.47937 32.8172 6.80413 30.76 7.18301L31.8427 5.55923L29.8397 6.04636C24.9674 7.18301 21.665 9.56456 19.8244 11.2966C19.8244 11.1883 19.8785 11.1342 19.8785 11.026L20.3657 9.13155L18.6875 10.1058C15.8724 11.7837 13.6528 14.1111 11.9746 16.601C13.7611 11.7296 17.6589 6.26287 25.996 3.61068C36.0113 0.417238 42.5618 3.12354 45.1061 4.58495C43.7528 5.12621 41.6956 6.04635 40.288 7.02063ZM52.7936 6.80413L50.574 6.58762L51.8732 7.88665C50.0867 7.34539 48.2461 6.58762 47.6506 5.61334C47.5965 5.55923 47.5965 5.50509 47.5423 5.39684L48.4626 5.07208L47.5965 4.36844C47.9753 3.61068 49.1664 1.9869 51.9815 2.90704C53.2808 3.34005 54.2011 3.98956 54.7965 4.53082L52.0356 4.26019L54.3094 5.93811C55.0131 6.47937 55.5004 6.91238 55.8793 7.45364C54.9048 7.18301 53.7681 6.91238 52.7936 6.80413Z" fill="#1B314F"/>
<path d="M17.3342 18.2789C16.6846 17.7918 17.1176 16.1138 17.1176 16.1138C17.1176 16.1138 15.0604 18.0624 17.3342 18.2789Z" fill="#1B314F"/>
<path d="M27.0785 24.3952C27.0785 24.3952 29.1899 23.7998 31.3553 20.6063C33.5208 17.4129 31.4636 13.0286 31.4636 13.0286C31.4636 13.0286 27.4034 19.145 24.9131 22.3384C24.9131 22.3384 25.0213 22.6632 24.9672 23.4209C24.859 24.1787 25.671 24.8282 25.671 24.8282L27.0785 24.3952ZM30.8682 16.3845C30.8682 16.3845 31.4095 18.5495 30.1643 20.011C28.6485 21.7971 27.2951 21.743 27.2951 21.743L30.8682 16.3845Z" fill="white"/>
<path d="M11.0543 23.4208C10.8918 22.9336 10.7294 22.5006 10.567 22.0134C9.10534 21.4723 6.8316 20.6604 4.612 19.8484C7.2647 21.5804 10.1339 23.2584 11.2167 23.8538C11.1626 23.6914 11.1084 23.5831 11.0543 23.4208Z" fill="white"/>
</svg>
