<svg width="63" height="68" viewBox="0 0 63 68" fill="none" xmlns="http://www.w3.org/2000/svg">
<path d="M62.0924 20.0222V48.1917C62.0924 49.3548 60.8158 50.0923 59.7944 49.525L48.3329 42.9152C47.8507 42.6315 47.567 42.1493 47.567 41.5819V26.632C47.567 26.093 47.8507 25.5824 48.3329 25.2987L59.7944 18.6889C60.8158 18.1216 62.0924 18.8591 62.0924 20.0222Z" fill="#523E97"/>
<path d="M58.9433 53.3832L34.4883 67.4821C33.467 68.0778 32.1904 67.3402 32.1904 66.1488V52.9576C32.1904 52.4186 32.4741 51.908 32.9564 51.6243L45.9498 44.1352C46.4321 43.8515 46.9995 43.8515 47.4818 44.1352L58.9433 50.7449C59.9647 51.3407 59.9647 52.8158 58.9433 53.3832Z" fill="#523E97"/>
<path d="M15.0549 26.632V41.5819C15.0549 42.1209 14.7712 42.6315 14.2889 42.9152L2.82739 49.525C1.80607 50.0923 0.529419 49.3548 0.529419 48.1917V20.0222C0.529419 18.8591 1.80607 18.1216 2.82739 18.6889L14.2889 25.2987C14.7428 25.5824 15.0549 26.093 15.0549 26.632Z" fill="#523E97"/>
<path d="M30.4315 52.9575V66.1487C30.4315 67.3118 29.1548 68.0493 28.1335 67.482L3.67853 53.4114C2.65721 52.8157 2.65721 51.3689 3.67853 50.7732L15.14 44.1634C15.6223 43.8798 16.1897 43.8798 16.672 44.1634L29.6655 51.6526C30.1478 51.9079 30.4315 52.4185 30.4315 52.9575Z" fill="#523E97"/>
<path d="M58.9433 17.4695L47.4818 24.0792C46.9995 24.3629 46.4321 24.3629 45.9499 24.0792L32.9564 16.59C32.4741 16.3064 32.1904 15.8241 32.1904 15.2568V2.06562C32.1904 0.90253 33.467 0.164961 34.4883 0.732322L58.9433 14.8029C59.9647 15.3986 59.9647 16.8737 58.9433 17.4695Z" fill="#523E97"/>
<path d="M30.4314 2.06545V15.2566C30.4314 15.7956 30.1477 16.3062 29.6654 16.5899L16.7003 24.079C16.218 24.3627 15.6506 24.3627 15.1684 24.079L3.70685 17.4693C2.68553 16.8736 2.68553 15.4268 3.70685 14.8311L28.1335 0.732155C29.1548 0.164794 30.4314 0.873995 30.4314 2.06545Z" fill="#523E97"/>
<path d="M30.0059 34.3772L18.0905 27.5121C17.5231 27.1717 16.7855 27.5972 16.7855 28.2497V41.9514C16.7855 42.2635 16.9557 42.5472 17.211 42.689L29.1264 49.5541C29.6938 49.8945 30.4315 49.469 30.4315 48.8165V35.1148C30.4315 34.8311 30.2612 34.5474 30.0059 34.3772Z" fill="#523E97"/>
<path d="M32.1904 35.1144V48.8446C32.1904 49.497 32.8997 49.9226 33.4955 49.5821L45.4109 42.7171C45.6662 42.5752 45.8364 42.2916 45.8364 41.9795V28.2494C45.8364 27.5969 45.1272 27.1714 44.5314 27.5118L32.616 34.3769C32.3607 34.5187 32.1904 34.8024 32.1904 35.1144Z" fill="#523E97"/>
<path d="M43.9072 26.1216L31.7365 33.1285C31.4811 33.2703 31.1407 33.2703 30.8854 33.1285L18.7146 26.1216C18.1472 25.7811 18.1472 24.9585 18.7146 24.6181L30.8854 17.6395C31.1407 17.4977 31.4811 17.4977 31.7365 17.6395L43.9072 24.6464C44.4746 24.9585 44.4746 25.7811 43.9072 26.1216Z" fill="#523E97"/>
</svg>
